<svg width="512" height="512" viewBox="0 0 512 512" fill="none" xmlns="http://www.w3.org/2000/svg">
<rect x="41" y="41" width="430" height="430" rx="92" fill="#3B82F6"/>
<g transform="translate(256 256) scale(0.80) translate(-256 -256)">
<path d="M308.946 153.758C314.185 153.758 318.268 158.321 317.516 163.506C306.856 237.02 270.334 302.155 217.471 349.386C211.398 354.812 203.458 357.586 195.315 357.586H127.562C117.863 357.586 110.001 349.724 110.001 340.025V333.552C110.001 326.82 113.882 320.731 119.792 317.505C176.087 286.779 217.883 232.832 232.32 168.537C234.216 160.09 241.509 153.758 250.167 153.758H308.946Z" fill="black"/>
<path d="M183.573 153.758C188.576 153.758 192.592 157.94 192.069 162.916C187.11 210.12 160.549 250.886 122.45 275.151C116.916 278.676 110 274.489 110 267.928V171.318C110 161.62 117.862 153.758 127.56 153.758H183.573Z" fill="black"/>
<path d="M414.815 153.758C425.503 153.758 433.734 163.232 431.799 173.743C420.697 234.038 398.943 290.601 368.564 341.414C362.464 351.617 351.307 357.586 339.419 357.586H274.228C266.726 357.586 262.611 348.727 267.233 342.819C306.591 292.513 334.86 233.113 348.361 168.295C350.104 159.925 357.372 153.758 365.922 153.758H414.815Z" fill="black"/>
</g>
</svg>
